<svg xmlns="http://www.w3.org/2000/svg" width="75" viewBox="0 0 75 75" height="75" version="1.0"><defs><clipPath id="a"><path d="M 9 64 L 22 64 L 22 73.148438 L 9 73.148438 Z M 9 64"/></clipPath><clipPath id="b"><path d="M 15 1.898438 L 19 1.898438 L 19 23 L 15 23 Z M 15 1.898438"/></clipPath><clipPath id="c"><path d="M 53 64 L 66 64 L 66 73.148438 L 53 73.148438 Z M 53 64"/></clipPath><clipPath id="d"><path d="M 3.367188 52 L 71.617188 52 L 71.617188 68 L 3.367188 68 Z M 3.367188 52"/></clipPath><clipPath id="e"><path d="M 56 1.898438 L 60 1.898438 L 60 23 L 56 23 Z M 56 1.898438"/></clipPath></defs><g clip-path="url(#a)"><path d="M 16.726562 73.148438 L 13.761719 73.148438 C 11.308594 73.148438 9.3125 71.148438 9.3125 68.695312 L 9.3125 65.726562 C 9.3125 64.90625 9.976562 64.242188 10.796875 64.242188 C 11.613281 64.242188 12.277344 64.90625 12.277344 65.726562 L 12.277344 68.695312 C 12.277344 69.515625 12.945312 70.179688 13.761719 70.179688 L 16.726562 70.179688 C 17.542969 70.179688 18.210938 69.515625 18.210938 68.695312 L 18.210938 65.726562 C 18.210938 64.90625 18.875 64.242188 19.695312 64.242188 C 20.511719 64.242188 21.175781 64.90625 21.175781 65.726562 L 21.175781 68.695312 C 21.175781 71.148438 19.179688 73.148438 16.726562 73.148438 Z M 16.726562 73.148438"/></g><path d="M 22.660156 52.367188 L 13.761719 52.367188 C 12.941406 52.367188 12.277344 51.703125 12.277344 50.882812 L 12.277344 44.945312 C 12.277344 44.125 12.941406 43.460938 13.761719 43.460938 L 22.660156 43.460938 C 23.480469 43.460938 24.144531 44.125 24.144531 44.945312 L 24.144531 50.882812 C 24.144531 51.703125 23.480469 52.367188 22.660156 52.367188 Z M 15.246094 49.398438 L 21.175781 49.398438 L 21.175781 46.429688 L 15.246094 46.429688 Z M 15.246094 49.398438"/><path d="M 46.390625 43.460938 L 28.59375 43.460938 C 27.773438 43.460938 27.109375 42.796875 27.109375 41.976562 C 27.109375 41.15625 27.773438 40.492188 28.59375 40.492188 L 46.390625 40.492188 C 47.210938 40.492188 47.875 41.15625 47.875 41.976562 C 47.875 42.796875 47.210938 43.460938 46.390625 43.460938 Z M 46.390625 43.460938"/><path d="M 46.390625 49.398438 L 28.59375 49.398438 C 27.773438 49.398438 27.109375 48.734375 27.109375 47.914062 C 27.109375 47.09375 27.773438 46.429688 28.59375 46.429688 L 46.390625 46.429688 C 47.210938 46.429688 47.875 47.09375 47.875 47.914062 C 47.875 48.734375 47.210938 49.398438 46.390625 49.398438 Z M 46.390625 49.398438"/><path d="M 44.90625 55.335938 L 30.078125 55.335938 C 29.257812 55.335938 28.59375 54.671875 28.59375 53.851562 C 28.59375 53.03125 29.257812 52.367188 30.078125 52.367188 L 44.90625 52.367188 C 45.726562 52.367188 46.390625 53.03125 46.390625 53.851562 C 46.390625 54.671875 45.726562 55.335938 44.90625 55.335938 Z M 44.90625 55.335938"/><path d="M 19.695312 40.492188 C 18.875 40.492188 18.210938 39.828125 18.210938 39.007812 L 18.210938 22.679688 L 15.246094 22.679688 L 15.246094 39.007812 C 15.246094 39.828125 14.582031 40.492188 13.761719 40.492188 C 12.941406 40.492188 12.277344 39.828125 12.277344 39.007812 L 12.277344 21.195312 C 12.277344 20.375 12.941406 19.710938 13.761719 19.710938 L 19.695312 19.710938 C 20.511719 19.710938 21.175781 20.375 21.175781 21.195312 L 21.175781 39.007812 C 21.175781 39.828125 20.511719 40.492188 19.695312 40.492188 Z M 19.695312 40.492188"/><g clip-path="url(#b)"><path d="M 16.726562 22.679688 C 15.910156 22.679688 15.246094 22.015625 15.246094 21.195312 L 15.246094 3.382812 C 15.246094 2.5625 15.910156 1.898438 16.726562 1.898438 C 17.546875 1.898438 18.210938 2.5625 18.210938 3.382812 L 18.210938 21.195312 C 18.210938 22.015625 17.546875 22.679688 16.726562 22.679688 Z M 16.726562 22.679688"/></g><g clip-path="url(#c)"><path d="M 61.222656 73.148438 L 58.257812 73.148438 C 55.804688 73.148438 53.804688 71.148438 53.804688 68.695312 L 53.804688 65.726562 C 53.804688 64.90625 54.472656 64.242188 55.289062 64.242188 C 56.109375 64.242188 56.773438 64.90625 56.773438 65.726562 L 56.773438 68.695312 C 56.773438 69.515625 57.441406 70.179688 58.257812 70.179688 L 61.222656 70.179688 C 62.039062 70.179688 62.707031 69.515625 62.707031 68.695312 L 62.707031 65.726562 C 62.707031 64.90625 63.371094 64.242188 64.1875 64.242188 C 65.007812 64.242188 65.671875 64.90625 65.671875 65.726562 L 65.671875 68.695312 C 65.671875 71.148438 63.675781 73.148438 61.222656 73.148438 Z M 61.222656 73.148438"/></g><g clip-path="url(#d)"><path d="M 61.222656 67.210938 L 13.761719 67.210938 C 13.601562 67.210938 13.445312 67.183594 13.292969 67.132812 L 4.394531 64.164062 C 3.789062 63.964844 3.378906 63.394531 3.378906 62.757812 L 3.378906 53.851562 C 3.378906 53.375 3.609375 52.925781 3.996094 52.644531 C 4.382812 52.367188 4.875 52.285156 5.332031 52.445312 L 14 55.335938 L 25.625 55.335938 C 26.019531 55.335938 26.398438 55.492188 26.675781 55.769531 L 29.207031 58.304688 L 45.777344 58.304688 L 48.308594 55.769531 C 48.585938 55.492188 48.960938 55.335938 49.355469 55.335938 L 60.980469 55.335938 L 69.652344 52.445312 C 70.101562 52.285156 70.601562 52.367188 70.988281 52.644531 C 71.375 52.925781 71.605469 53.375 71.605469 53.851562 L 71.605469 62.757812 C 71.605469 63.394531 71.195312 63.964844 70.589844 64.164062 L 61.691406 67.132812 C 61.539062 67.183594 61.382812 67.210938 61.222656 67.210938 Z M 14 64.242188 L 60.980469 64.242188 L 68.636719 61.6875 L 68.636719 55.910156 L 61.691406 58.226562 C 61.539062 58.277344 61.382812 58.304688 61.222656 58.304688 L 49.972656 58.304688 L 47.4375 60.839844 C 47.160156 61.117188 46.785156 61.273438 46.390625 61.273438 L 28.59375 61.273438 C 28.199219 61.273438 27.820312 61.117188 27.542969 60.839844 L 25.011719 58.304688 L 13.761719 58.304688 C 13.601562 58.304688 13.445312 58.277344 13.292969 58.226562 L 6.347656 55.910156 L 6.347656 61.6875 Z M 14 64.242188"/></g><path d="M 67.15625 55.335938 C 66.335938 55.335938 65.671875 54.671875 65.671875 53.851562 L 65.671875 44.410156 C 65.671875 43.707031 65.171875 43.09375 64.480469 42.957031 L 54.914062 40.445312 C 54.460938 40.324219 54.089844 40 53.914062 39.558594 L 51.386719 33.242188 C 51.242188 32.878906 50.972656 32.597656 50.632812 32.445312 C 45.300781 30.046875 40.945312 28.617188 38.976562 28.617188 L 36.007812 28.617188 C 34.039062 28.617188 29.683594 30.046875 24.351562 32.445312 C 24.007812 32.597656 23.738281 32.878906 23.597656 33.238281 L 21.066406 39.558594 C 20.890625 39.996094 20.523438 40.324219 20.066406 40.445312 L 10.585938 42.933594 C 9.8125 43.09375 9.3125 43.707031 9.3125 44.410156 L 9.3125 53.851562 C 9.3125 54.671875 8.648438 55.335938 7.828125 55.335938 C 7.011719 55.335938 6.347656 54.671875 6.347656 53.851562 L 6.347656 44.410156 C 6.347656 42.296875 7.851562 40.460938 9.921875 40.042969 L 18.59375 37.761719 L 20.84375 32.136719 C 21.273438 31.058594 22.089844 30.203125 23.136719 29.730469 C 26.535156 28.207031 32.722656 25.648438 36.007812 25.648438 L 38.976562 25.648438 C 42.261719 25.648438 48.449219 28.207031 51.847656 29.734375 C 52.898438 30.207031 53.714844 31.058594 54.140625 32.140625 L 56.390625 37.765625 L 65.148438 40.066406 C 67.132812 40.460938 68.636719 42.292969 68.636719 44.410156 L 68.636719 53.851562 C 68.636719 54.671875 67.972656 55.335938 67.15625 55.335938 Z M 67.15625 55.335938"/><path d="M 61.222656 52.367188 L 52.324219 52.367188 C 51.503906 52.367188 50.839844 51.703125 50.839844 50.882812 L 50.839844 44.945312 C 50.839844 44.125 51.503906 43.460938 52.324219 43.460938 L 61.222656 43.460938 C 62.039062 43.460938 62.707031 44.125 62.707031 44.945312 L 62.707031 50.882812 C 62.707031 51.703125 62.039062 52.367188 61.222656 52.367188 Z M 53.804688 49.398438 L 59.738281 49.398438 L 59.738281 46.429688 L 53.804688 46.429688 Z M 53.804688 49.398438"/><path d="M 61.222656 40.492188 C 60.402344 40.492188 59.738281 39.828125 59.738281 39.007812 L 59.738281 22.679688 L 56.773438 22.679688 L 56.773438 39.007812 C 56.773438 39.828125 56.109375 40.492188 55.289062 40.492188 C 54.472656 40.492188 53.804688 39.828125 53.804688 39.007812 L 53.804688 21.195312 C 53.804688 20.375 54.472656 19.710938 55.289062 19.710938 L 61.222656 19.710938 C 62.039062 19.710938 62.707031 20.375 62.707031 21.195312 L 62.707031 39.007812 C 62.707031 39.828125 62.039062 40.492188 61.222656 40.492188 Z M 61.222656 40.492188"/><path d="M 55.289062 22.679688 C 54.644531 22.679688 54.050781 22.253906 53.867188 21.601562 L 51.105469 11.9375 C 49.894531 11.574219 46.441406 10.804688 38.976562 10.804688 L 36.007812 10.804688 C 28.566406 10.804688 25.109375 11.570312 23.878906 11.9375 L 21.117188 21.601562 C 20.890625 22.386719 20.078125 22.835938 19.285156 22.625 C 18.5 22.398438 18.042969 21.574219 18.269531 20.789062 L 21.238281 10.398438 C 21.347656 10.007812 21.613281 9.675781 21.976562 9.488281 C 22.296875 9.320312 25.441406 7.835938 36.007812 7.835938 L 38.976562 7.835938 C 49.539062 7.835938 52.683594 9.320312 53.007812 9.488281 C 53.367188 9.675781 53.636719 10.007812 53.746094 10.398438 L 56.714844 20.789062 C 56.9375 21.574219 56.484375 22.398438 55.695312 22.625 C 55.5625 22.660156 55.421875 22.679688 55.289062 22.679688 Z M 55.289062 22.679688"/><path d="M 19.695312 25.648438 C 19.054688 25.648438 18.464844 25.234375 18.273438 24.589844 C 18.035156 23.804688 18.484375 22.976562 19.265625 22.742188 C 19.683594 22.617188 29.472656 19.710938 36.007812 19.710938 L 38.976562 19.710938 C 45.511719 19.710938 55.300781 22.617188 55.714844 22.742188 C 56.503906 22.976562 56.949219 23.800781 56.714844 24.589844 C 56.476562 25.371094 55.664062 25.820312 54.867188 25.585938 C 54.765625 25.554688 45.078125 22.679688 38.976562 22.679688 L 36.007812 22.679688 C 29.898438 22.679688 20.214844 25.554688 20.121094 25.585938 C 19.980469 25.628906 19.832031 25.648438 19.695312 25.648438 Z M 19.695312 25.648438"/><g clip-path="url(#e)"><path d="M 58.257812 22.679688 C 57.4375 22.679688 56.773438 22.015625 56.773438 21.195312 L 56.773438 3.382812 C 56.773438 2.5625 57.4375 1.898438 58.257812 1.898438 C 59.074219 1.898438 59.738281 2.5625 59.738281 3.382812 L 59.738281 21.195312 C 59.738281 22.015625 59.074219 22.679688 58.257812 22.679688 Z M 58.257812 22.679688"/></g><path d="M 46.390625 61.273438 C 45.570312 61.273438 44.90625 60.609375 44.90625 59.789062 L 44.90625 39.382812 C 43.964844 38.667969 40.378906 37.523438 38.976562 37.523438 L 36.007812 37.523438 C 34.605469 37.523438 31.019531 38.671875 30.078125 39.382812 L 30.078125 59.789062 C 30.078125 60.609375 29.410156 61.273438 28.59375 61.273438 C 27.773438 61.273438 27.109375 60.609375 27.109375 59.789062 L 27.109375 39.007812 C 27.109375 35.921875 34.933594 34.554688 36.007812 34.554688 L 38.976562 34.554688 C 40.050781 34.554688 47.875 35.921875 47.875 39.007812 L 47.875 59.789062 C 47.875 60.609375 47.210938 61.273438 46.390625 61.273438 Z M 46.390625 61.273438"/><path d="M 37.492188 22.679688 C 36.671875 22.679688 36.007812 22.015625 36.007812 21.195312 L 36.007812 9.320312 C 36.007812 8.5 36.671875 7.835938 37.492188 7.835938 C 38.3125 7.835938 38.976562 8.5 38.976562 9.320312 L 38.976562 21.195312 C 38.976562 22.015625 38.3125 22.679688 37.492188 22.679688 Z M 37.492188 22.679688"/></svg>