<svg xmlns="http://www.w3.org/2000/svg" width="75" viewBox="0 0 75 75" height="75" version="1.0"><defs><clipPath id="a"><path d="M 3.078125 55 L 25 55 L 25 72.078125 L 3.078125 72.078125 Z M 3.078125 55"/></clipPath><clipPath id="b"><path d="M 50 55 L 72.078125 55 L 72.078125 72.078125 L 50 72.078125 Z M 50 55"/></clipPath><clipPath id="c"><path d="M 31 3.078125 L 44 3.078125 L 44 15 L 31 15 Z M 31 3.078125"/></clipPath></defs><path d="M 19.789062 47.820312 C 19.789062 48.210938 19.75 48.59375 19.675781 48.976562 C 19.597656 49.359375 19.484375 49.730469 19.335938 50.089844 C 19.1875 50.449219 19.003906 50.789062 18.789062 51.113281 C 18.574219 51.4375 18.328125 51.738281 18.050781 52.011719 C 17.777344 52.289062 17.476562 52.535156 17.152344 52.75 C 16.828125 52.964844 16.488281 53.148438 16.128906 53.296875 C 15.769531 53.445312 15.398438 53.558594 15.015625 53.636719 C 14.632812 53.710938 14.25 53.75 13.859375 53.75 C 13.46875 53.75 13.082031 53.710938 12.703125 53.636719 C 12.320312 53.558594 11.949219 53.445312 11.589844 53.296875 C 11.230469 53.148438 10.886719 52.964844 10.5625 52.75 C 10.242188 52.535156 9.941406 52.289062 9.664062 52.011719 C 9.390625 51.738281 9.144531 51.4375 8.929688 51.113281 C 8.710938 50.789062 8.53125 50.449219 8.378906 50.089844 C 8.230469 49.730469 8.117188 49.359375 8.042969 48.976562 C 7.96875 48.59375 7.929688 48.210938 7.929688 47.820312 C 7.929688 47.429688 7.96875 47.042969 8.042969 46.664062 C 8.117188 46.28125 8.230469 45.910156 8.378906 45.550781 C 8.53125 45.191406 8.710938 44.847656 8.929688 44.523438 C 9.144531 44.203125 9.390625 43.902344 9.664062 43.625 C 9.941406 43.351562 10.242188 43.105469 10.5625 42.890625 C 10.886719 42.671875 11.230469 42.492188 11.589844 42.339844 C 11.949219 42.191406 12.320312 42.078125 12.703125 42.003906 C 13.082031 41.929688 13.46875 41.890625 13.859375 41.890625 C 14.25 41.890625 14.632812 41.929688 15.015625 42.003906 C 15.398438 42.078125 15.769531 42.191406 16.128906 42.339844 C 16.488281 42.492188 16.828125 42.671875 17.152344 42.890625 C 17.476562 43.105469 17.777344 43.351562 18.050781 43.625 C 18.328125 43.902344 18.574219 44.203125 18.789062 44.523438 C 19.003906 44.847656 19.1875 45.191406 19.335938 45.550781 C 19.484375 45.910156 19.597656 46.28125 19.675781 46.664062 C 19.75 47.042969 19.789062 47.429688 19.789062 47.820312 Z M 19.789062 47.820312"/><g clip-path="url(#a)"><path d="M 6.3125 72.078125 L 21.40625 72.078125 C 23.183594 72.078125 24.640625 70.621094 24.640625 68.84375 L 24.640625 62.96875 C 24.640625 58.707031 21.945312 55.90625 17.957031 55.90625 L 9.761719 55.90625 C 5.773438 55.90625 3.078125 58.761719 3.078125 62.96875 L 3.078125 68.84375 C 3.078125 70.621094 4.53125 72.078125 6.3125 72.078125 Z M 5.234375 62.96875 C 5.234375 59.355469 7.550781 58.0625 9.761719 58.0625 L 17.957031 58.0625 C 20.164062 58.0625 22.484375 59.355469 22.484375 62.96875 L 22.484375 68.84375 C 22.484375 69.4375 22 69.921875 21.40625 69.921875 L 6.3125 69.921875 C 5.71875 69.921875 5.234375 69.4375 5.234375 68.84375 Z M 5.234375 62.96875"/></g><path d="M 67.226562 47.820312 C 67.226562 48.210938 67.1875 48.59375 67.113281 48.976562 C 67.035156 49.359375 66.921875 49.730469 66.773438 50.089844 C 66.625 50.449219 66.441406 50.789062 66.226562 51.113281 C 66.011719 51.4375 65.765625 51.738281 65.488281 52.011719 C 65.214844 52.289062 64.914062 52.535156 64.589844 52.75 C 64.265625 52.964844 63.925781 53.148438 63.566406 53.296875 C 63.207031 53.445312 62.835938 53.558594 62.453125 53.636719 C 62.070312 53.710938 61.6875 53.75 61.296875 53.75 C 60.90625 53.75 60.519531 53.710938 60.140625 53.636719 C 59.757812 53.558594 59.386719 53.445312 59.027344 53.296875 C 58.667969 53.148438 58.324219 52.964844 58 52.75 C 57.679688 52.535156 57.378906 52.289062 57.101562 52.011719 C 56.828125 51.738281 56.582031 51.4375 56.367188 51.113281 C 56.148438 50.789062 55.96875 50.449219 55.816406 50.089844 C 55.667969 49.730469 55.554688 49.359375 55.480469 48.976562 C 55.40625 48.59375 55.367188 48.210938 55.367188 47.820312 C 55.367188 47.429688 55.40625 47.042969 55.480469 46.664062 C 55.554688 46.28125 55.667969 45.910156 55.816406 45.550781 C 55.96875 45.191406 56.148438 44.847656 56.367188 44.523438 C 56.582031 44.203125 56.828125 43.902344 57.101562 43.625 C 57.378906 43.351562 57.679688 43.105469 58 42.890625 C 58.324219 42.671875 58.667969 42.492188 59.027344 42.339844 C 59.386719 42.191406 59.757812 42.078125 60.140625 42.003906 C 60.519531 41.929688 60.90625 41.890625 61.296875 41.890625 C 61.6875 41.890625 62.070312 41.929688 62.453125 42.003906 C 62.835938 42.078125 63.207031 42.191406 63.566406 42.339844 C 63.925781 42.492188 64.265625 42.671875 64.589844 42.890625 C 64.914062 43.105469 65.214844 43.351562 65.488281 43.625 C 65.765625 43.902344 66.011719 44.203125 66.226562 44.523438 C 66.441406 44.847656 66.625 45.191406 66.773438 45.550781 C 66.921875 45.910156 67.035156 46.28125 67.113281 46.664062 C 67.1875 47.042969 67.226562 47.429688 67.226562 47.820312 Z M 67.226562 47.820312"/><g clip-path="url(#b)"><path d="M 53.75 72.078125 L 68.84375 72.078125 C 70.621094 72.078125 72.078125 70.621094 72.078125 68.84375 L 72.078125 62.96875 C 72.078125 58.707031 69.382812 55.90625 65.394531 55.90625 L 57.199219 55.90625 C 53.210938 55.90625 50.515625 58.761719 50.515625 62.96875 L 50.515625 68.84375 C 50.515625 70.621094 51.96875 72.078125 53.75 72.078125 Z M 52.671875 62.96875 C 52.671875 59.355469 54.988281 58.0625 57.199219 58.0625 L 65.394531 58.0625 C 67.601562 58.0625 69.921875 59.355469 69.921875 62.96875 L 69.921875 68.84375 C 69.921875 69.4375 69.4375 69.921875 68.84375 69.921875 L 53.75 69.921875 C 53.15625 69.921875 52.671875 69.4375 52.671875 68.84375 Z M 52.671875 62.96875"/></g><path d="M 30.03125 30.03125 L 45.125 30.03125 C 46.902344 30.03125 48.359375 28.574219 48.359375 26.796875 L 48.359375 20.921875 C 48.359375 17.46875 46.578125 14.992188 43.832031 14.128906 C 43.238281 14.882812 42.484375 15.476562 41.621094 15.960938 L 41.675781 15.960938 C 43.882812 15.960938 46.203125 17.253906 46.203125 20.867188 L 46.203125 26.796875 C 46.203125 27.390625 45.71875 27.875 45.125 27.875 L 30.03125 27.875 C 29.4375 27.875 28.953125 27.390625 28.953125 26.796875 L 28.953125 20.921875 C 28.953125 17.308594 31.269531 16.015625 33.480469 16.015625 L 33.535156 16.015625 C 32.671875 15.53125 31.917969 14.882812 31.324219 14.183594 C 28.519531 14.992188 26.796875 17.523438 26.796875 20.972656 L 26.796875 26.796875 C 26.796875 28.574219 28.25 30.03125 30.03125 30.03125 Z M 30.03125 30.03125"/><g clip-path="url(#c)"><path d="M 43.507812 9.007812 C 43.507812 9.398438 43.46875 9.78125 43.394531 10.164062 C 43.316406 10.546875 43.203125 10.917969 43.054688 11.277344 C 42.90625 11.636719 42.722656 11.976562 42.507812 12.300781 C 42.292969 12.625 42.046875 12.925781 41.769531 13.199219 C 41.496094 13.476562 41.195312 13.722656 40.871094 13.9375 C 40.546875 14.152344 40.207031 14.335938 39.847656 14.484375 C 39.488281 14.632812 39.117188 14.746094 38.734375 14.824219 C 38.351562 14.898438 37.96875 14.9375 37.578125 14.9375 C 37.1875 14.9375 36.800781 14.898438 36.421875 14.824219 C 36.039062 14.746094 35.667969 14.632812 35.308594 14.484375 C 34.949219 14.335938 34.605469 14.152344 34.28125 13.9375 C 33.960938 13.722656 33.660156 13.476562 33.382812 13.199219 C 33.109375 12.925781 32.863281 12.625 32.648438 12.300781 C 32.429688 11.976562 32.25 11.636719 32.097656 11.277344 C 31.949219 10.917969 31.835938 10.546875 31.761719 10.164062 C 31.6875 9.78125 31.648438 9.398438 31.648438 9.007812 C 31.648438 8.617188 31.6875 8.230469 31.761719 7.851562 C 31.835938 7.46875 31.949219 7.097656 32.097656 6.738281 C 32.25 6.378906 32.429688 6.035156 32.648438 5.710938 C 32.863281 5.390625 33.109375 5.089844 33.382812 4.8125 C 33.660156 4.539062 33.960938 4.292969 34.28125 4.078125 C 34.605469 3.859375 34.949219 3.679688 35.308594 3.527344 C 35.667969 3.378906 36.039062 3.265625 36.421875 3.191406 C 36.800781 3.117188 37.1875 3.078125 37.578125 3.078125 C 37.96875 3.078125 38.351562 3.117188 38.734375 3.191406 C 39.117188 3.265625 39.488281 3.378906 39.847656 3.527344 C 40.207031 3.679688 40.546875 3.859375 40.871094 4.078125 C 41.195312 4.292969 41.496094 4.539062 41.769531 4.8125 C 42.046875 5.089844 42.292969 5.390625 42.507812 5.710938 C 42.722656 6.035156 42.90625 6.378906 43.054688 6.738281 C 43.203125 7.097656 43.316406 7.46875 43.394531 7.851562 C 43.46875 8.230469 43.507812 8.617188 43.507812 9.007812 Z M 43.507812 9.007812"/></g><path d="M 12.835938 39.734375 C 12.886719 39.734375 12.941406 39.734375 12.996094 39.734375 C 13.589844 39.679688 14.019531 39.085938 13.914062 38.546875 C 13.859375 38.171875 12.835938 29.4375 20.972656 24.746094 L 20.867188 24.964844 C 20.652344 25.503906 20.867188 26.148438 21.40625 26.363281 C 21.566406 26.417969 21.675781 26.472656 21.835938 26.472656 C 22.269531 26.472656 22.644531 26.203125 22.808594 25.824219 L 24.53125 21.835938 C 24.695312 21.460938 24.640625 21.082031 24.425781 20.757812 C 24.207031 20.433594 23.832031 20.273438 23.398438 20.328125 L 18.925781 20.921875 C 18.332031 20.972656 17.902344 21.511719 18.007812 22.105469 C 18.0625 22.699219 18.65625 23.128906 19.195312 23.023438 L 19.625 22.96875 C 10.515625 28.46875 11.757812 38.710938 11.757812 38.816406 C 11.863281 39.355469 12.296875 39.734375 12.835938 39.734375 Z M 12.835938 39.734375"/><path d="M 51.160156 22.375 C 58.277344 25.503906 59.894531 31.378906 60.21875 34.828125 L 59.839844 34.234375 C 59.515625 33.75 58.871094 33.589844 58.332031 33.910156 C 57.847656 34.234375 57.683594 34.882812 58.007812 35.421875 L 60.378906 39.25 C 60.59375 39.570312 60.917969 39.734375 61.296875 39.734375 C 61.296875 39.734375 61.351562 39.734375 61.351562 39.734375 C 61.726562 39.734375 62.105469 39.519531 62.265625 39.140625 L 64.421875 34.988281 C 64.691406 34.449219 64.476562 33.804688 63.9375 33.535156 C 63.398438 33.265625 62.75 33.480469 62.480469 34.019531 L 62.265625 34.398438 C 61.835938 30.355469 59.839844 23.886719 52.023438 20.433594 C 51.484375 20.21875 50.839844 20.433594 50.621094 20.972656 C 50.351562 21.511719 50.621094 22.160156 51.160156 22.375 Z M 51.160156 22.375"/><path d="M 27.390625 49.707031 L 28.144531 49.707031 C 28.304688 50.246094 28.519531 50.785156 28.789062 51.324219 L 28.25 51.863281 C 27.390625 52.726562 27.441406 54.179688 28.359375 55.042969 L 29.277344 55.960938 C 29.707031 56.390625 30.355469 56.660156 30.945312 56.660156 C 31.539062 56.660156 32.078125 56.445312 32.457031 56.066406 L 32.996094 55.527344 C 33.535156 55.796875 34.074219 56.011719 34.613281 56.175781 L 34.613281 56.929688 C 34.613281 58.117188 35.636719 59.140625 36.929688 59.140625 L 38.171875 59.140625 C 39.464844 59.140625 40.488281 58.167969 40.488281 56.929688 L 40.488281 56.175781 C 41.027344 56.011719 41.566406 55.796875 42.105469 55.527344 L 42.644531 56.066406 C 43.023438 56.445312 43.5625 56.660156 44.152344 56.660156 C 44.800781 56.660156 45.394531 56.390625 45.824219 55.960938 L 46.6875 55.097656 C 47.117188 54.664062 47.386719 54.019531 47.386719 53.425781 C 47.386719 52.832031 47.171875 52.292969 46.796875 51.917969 L 46.257812 51.378906 C 46.527344 50.839844 46.742188 50.351562 46.902344 49.761719 L 47.65625 49.761719 C 48.84375 49.761719 49.867188 48.734375 49.867188 47.441406 L 49.867188 46.203125 C 49.867188 44.910156 48.898438 43.882812 47.65625 43.882812 L 46.902344 43.882812 C 46.742188 43.34375 46.527344 42.804688 46.257812 42.265625 L 46.796875 41.726562 C 47.226562 41.296875 47.441406 40.703125 47.386719 40.058594 C 47.335938 39.464844 47.117188 38.925781 46.6875 38.492188 L 45.824219 37.632812 C 45.394531 37.199219 44.746094 36.929688 44.152344 36.929688 C 43.5625 36.929688 43.023438 37.144531 42.644531 37.523438 L 42.105469 38.0625 C 41.566406 37.792969 41.027344 37.578125 40.488281 37.414062 L 40.488281 36.660156 C 40.488281 35.476562 39.464844 34.449219 38.171875 34.449219 L 36.929688 34.449219 C 35.636719 34.449219 34.613281 35.421875 34.613281 36.660156 L 34.613281 37.414062 C 34.074219 37.578125 33.535156 37.792969 32.996094 38.0625 L 32.457031 37.523438 C 32.078125 37.144531 31.539062 36.929688 30.945312 36.929688 C 30.300781 36.929688 29.707031 37.199219 29.277344 37.632812 L 28.414062 38.492188 C 27.496094 39.410156 27.441406 40.867188 28.304688 41.675781 L 28.84375 42.214844 C 28.574219 42.753906 28.359375 43.238281 28.199219 43.832031 L 27.441406 43.832031 C 26.257812 43.832031 25.234375 44.855469 25.234375 46.148438 L 25.234375 47.386719 C 25.179688 48.683594 26.148438 49.707031 27.390625 49.707031 Z M 37.578125 42.96875 C 39.679688 42.96875 41.351562 44.640625 41.351562 46.742188 C 41.351562 48.84375 39.679688 50.515625 37.578125 50.515625 C 35.476562 50.515625 33.804688 48.84375 33.804688 46.742188 C 33.804688 44.640625 35.476562 42.96875 37.578125 42.96875 Z M 37.578125 42.96875"/></svg>