<svg xmlns="http://www.w3.org/2000/svg" width="75" viewBox="0 0 75 75" height="75" version="1.0"><defs><clipPath id="a"><path d="M 16 3.265625 L 71.6875 3.265625 L 71.6875 66 L 16 66 Z M 16 3.265625"/></clipPath></defs><path d="M 36.855469 63.601562 C 32.300781 66.984375 26.40625 67.898438 20.996094 66.261719 C 15.84375 64.707031 11.625 60.566406 9.796875 55.558594 C 7.851562 50.222656 8.726562 44.335938 11.878906 39.65625 C 16.152344 33.296875 24.417969 30.761719 31.648438 32.949219 C 38.917969 35.148438 43.816406 42.128906 43.878906 49.59375 C 43.832031 55.070312 41.292969 60.304688 36.855469 63.601562 Z M 24.914062 28.375 C 12.636719 29.144531 3.507812 40.503906 5.15625 52.554688 C 6.644531 63.480469 16.71875 71.53125 27.730469 70.835938 C 38.882812 70.136719 47.609375 60.652344 47.710938 49.621094 C 47.601562 37.460938 37.167969 27.605469 24.914062 28.375"/><path d="M 27.226562 33.289062 L 25.445312 33.289062 L 25.445312 37.773438 L 27.226562 37.773438 L 27.226562 33.289062"/><path d="M 25.445312 66.039062 L 27.226562 66.039062 L 27.226562 61.554688 L 25.445312 61.554688 L 25.445312 66.039062"/><path d="M 38.199219 50.550781 L 42.707031 50.550781 L 42.707031 48.773438 L 38.199219 48.773438 L 38.199219 50.550781"/><path d="M 14.300781 48.773438 L 9.792969 48.773438 L 9.792969 50.550781 L 14.300781 50.550781 L 14.300781 48.773438"/><path d="M 38.515625 38.796875 L 37.257812 37.542969 L 34.070312 40.714844 L 35.332031 41.972656 L 38.515625 38.796875"/><path d="M 13.984375 60.699219 L 15.246094 61.957031 L 18.433594 58.785156 L 17.171875 57.527344 L 13.984375 60.699219"/><path d="M 33.984375 58.699219 L 37.167969 61.871094 L 38.433594 60.613281 L 35.246094 57.445312 L 33.984375 58.699219"/><path d="M 18.347656 40.628906 L 15.160156 37.457031 L 13.898438 38.71875 L 17.085938 41.886719 L 18.347656 40.628906"/><path d="M 26.839844 48.539062 L 27.300781 40.738281 L 26.183594 39.203125 L 24.910156 40.738281 L 25.695312 48.609375 C 25.363281 48.820312 25.144531 49.1875 25.144531 49.605469 C 25.144531 49.851562 25.222656 50.078125 25.347656 50.265625 L 20.625 60.78125 L 21.136719 62.605469 L 22.867188 61.613281 L 26.355469 50.789062 C 27.003906 50.78125 27.527344 50.253906 27.527344 49.605469 C 27.527344 49.132812 27.242188 48.722656 26.839844 48.539062"/><g clip-path="url(#a)"><path d="M 68.136719 36.035156 L 59.9375 36.035156 L 59.9375 29.953125 L 68.136719 29.953125 Z M 68.136719 44.191406 L 59.9375 44.191406 L 59.9375 38.109375 L 68.136719 38.109375 Z M 68.136719 52.351562 L 59.9375 52.351562 L 59.9375 46.269531 L 68.136719 46.269531 Z M 68.136719 60.507812 L 59.9375 60.507812 L 59.9375 54.425781 L 68.136719 54.425781 Z M 58.074219 36.035156 L 49.875 36.035156 L 49.875 29.953125 L 58.074219 29.953125 Z M 58.074219 44.191406 L 49.875 44.191406 L 49.875 38.109375 L 58.074219 38.109375 Z M 58.074219 52.351562 L 49.875 52.351562 L 49.875 46.269531 L 58.074219 46.269531 Z M 58.074219 60.507812 L 49.875 60.507812 L 49.875 54.425781 L 58.074219 54.425781 Z M 65.675781 10.230469 L 62.238281 10.230469 L 62.238281 6.339844 C 62.238281 4.648438 60.859375 3.273438 59.15625 3.273438 C 57.457031 3.273438 56.074219 4.648438 56.074219 6.339844 L 56.074219 10.230469 L 31.75 10.230469 L 31.75 6.339844 C 31.75 4.648438 30.371094 3.273438 28.671875 3.273438 C 26.96875 3.273438 25.589844 4.648438 25.589844 6.339844 L 25.589844 10.230469 L 22.152344 10.230469 C 18.875 10.230469 16.21875 12.875 16.21875 16.136719 L 16.21875 29.273438 C 19.292969 27.734375 22.769531 26.867188 26.449219 26.867188 C 30.636719 26.867188 34.5625 27.992188 37.933594 29.953125 L 37.949219 29.953125 L 37.949219 29.960938 C 38.59375 30.335938 39.214844 30.742188 39.8125 31.171875 L 39.8125 29.953125 L 48.011719 29.953125 L 48.011719 36.035156 L 44.761719 36.035156 C 45.257812 36.699219 45.714844 37.390625 46.140625 38.109375 L 48.011719 38.109375 L 48.011719 42.167969 C 48.8125 44.484375 49.25 46.96875 49.25 49.554688 C 49.25 52.144531 48.8125 54.628906 48.011719 56.945312 L 48.011719 60.507812 L 46.421875 60.507812 C 45.4375 62.28125 44.222656 63.90625 42.816406 65.347656 L 65.675781 65.347656 C 68.953125 65.347656 71.609375 62.703125 71.609375 59.445312 L 71.609375 16.136719 C 71.609375 12.875 68.953125 10.230469 65.675781 10.230469"/></g></svg>